<svg width="20" height="20" viewBox="0 0 20 20" fill="none" xmlns="http://www.w3.org/2000/svg">
<g clip-path="url(#clip0_37_731)">
<path d="M11.0907 0.126271C10.8925 -0.0190339 10.6295 -0.0406917 10.4102 0.0701171C10.1904 0.181106 10.0521 0.405963 10.0521 0.651878V13.3056C9.38512 12.7321 8.52055 12.383 7.57367 12.383C5.47364 12.383 3.76489 14.0912 3.76489 16.1912C3.76489 18.2918 5.47364 19.9999 7.57367 19.9999C9.67442 19.9999 11.3826 18.2917 11.3826 16.1912C11.3826 15.998 11.3569 2.16445 11.3569 2.16445C12.718 3.65163 14.9302 6.82525 14.9302 11.7382C14.9302 12.0982 15.2219 12.3907 15.5825 12.3907C15.9425 12.3907 16.2351 12.0982 16.2351 11.7382C16.2351 3.99378 11.301 0.280516 11.0907 0.126271ZM7.57373 18.6951C6.19303 18.6951 5.06982 17.5718 5.06982 16.1913C5.06982 14.8112 6.19309 13.6879 7.57373 13.6879C8.95437 13.6879 10.0777 14.8112 10.0777 16.1913C10.0777 17.5719 8.95437 18.6951 7.57373 18.6951Z" fill="#929FAD"/>
</g>
<defs>
<clipPath id="clip0_37_731">
<rect width="20" height="20" fill="white"/>
</clipPath>
</defs>
</svg>
