<svg width="216" height="200" viewBox="0 0 216 200" fill="none" xmlns="http://www.w3.org/2000/svg">
<defs>
<linearGradient id="paint0_linear_15_673" x1="66.9243" y1="192.963" x2="144.359" y2="8.98426" gradientUnits="userSpaceOnUse">
<stop stop-color="#808080" stop-opacity="0.25"/>
<stop offset="0.54" stop-color="#808080" stop-opacity="0.12"/>
<stop offset="1" stop-color="#808080" stop-opacity="0.1"/>
</linearGradient>
<linearGradient id="paint1_linear_15_673" x1="28885.6" y1="37466.9" x2="28885.6" y2="26709" gradientUnits="userSpaceOnUse">
<stop stop-color="#808080" stop-opacity="0.25"/>
<stop offset="0.54" stop-color="#808080" stop-opacity="0.12"/>
<stop offset="1" stop-color="#808080" stop-opacity="0.1"/>
</linearGradient>
<linearGradient id="paint2_linear_15_673" x1="32390.2" y1="23257.4" x2="32390.2" y2="12495.2" gradientUnits="userSpaceOnUse">
<stop stop-color="#808080" stop-opacity="0.25"/>
<stop offset="0.54" stop-color="#808080" stop-opacity="0.12"/>
<stop offset="1" stop-color="#808080" stop-opacity="0.1"/>
</linearGradient>
<linearGradient id="paint3_linear_15_673" x1="34281.4" y1="21668.6" x2="34281.4" y2="12315.8" gradientUnits="userSpaceOnUse">
<stop stop-color="#808080" stop-opacity="0.25"/>
<stop offset="0.54" stop-color="#808080" stop-opacity="0.12"/>
<stop offset="1" stop-color="#808080" stop-opacity="0.1"/>
</linearGradient>
<linearGradient id="paint4_linear_15_673" x1="-300796" y1="35654.8" x2="-300796" y2="26302.1" gradientUnits="userSpaceOnUse">
<stop stop-color="#808080" stop-opacity="0.25"/>
<stop offset="0.54" stop-color="#808080" stop-opacity="0.12"/>
<stop offset="1" stop-color="#808080" stop-opacity="0.1"/>
</linearGradient>
<clipPath id="clip0_15_673">
<rect width="216" height="200" fill="white"/>
</clipPath>
</defs>
<g clip-path="url(#clip0_15_673)">
<g opacity="0.5">
<path opacity="0.5" d="M150.838 12.0356L59.9257 12.2572C59.435 12.2583 58.9493 12.3561 58.4964 12.5451C58.0435 12.7341 57.6322 13.0105 57.2862 13.3586C56.9401 13.7067 56.6659 14.1196 56.4794 14.5738C56.2928 15.0279 56.1976 15.5144 56.199 16.0055L56.6119 186.153C56.6129 186.644 56.7107 187.13 56.8996 187.583C57.0884 188.037 57.3647 188.448 57.7126 188.794C58.0604 189.141 58.4731 189.415 58.927 189.602C59.3808 189.788 59.867 189.884 60.3577 189.882L151.27 189.661C151.761 189.66 152.247 189.562 152.7 189.373C153.153 189.183 153.565 188.907 153.911 188.558C154.257 188.21 154.531 187.797 154.717 187.342C154.904 186.888 154.999 186.401 154.997 185.91L154.584 15.762C154.583 15.2712 154.485 14.7855 154.296 14.3326C154.107 13.8797 153.83 13.4685 153.482 13.1225C153.135 12.7764 152.722 12.5024 152.268 12.3159C151.815 12.1294 151.329 12.0341 150.838 12.0356Z" fill="url(#paint0_linear_15_673)"/>
</g>
<path d="M149.521 14.3586L61.2529 14.5744C59.1932 14.5794 57.5275 16.2543 57.5326 18.3154L57.9365 183.751C57.9416 185.812 59.6154 187.479 61.6751 187.474L149.943 187.258C152.003 187.253 153.669 185.578 153.664 183.517L153.26 18.0813C153.255 16.0203 151.581 14.3535 149.521 14.3586Z" fill="white"/>
<path opacity="0.4" d="M129.446 18.7414C129.174 20.5754 128.255 22.2513 126.855 23.4662C125.455 24.681 123.667 25.3547 121.815 25.3653L88.7499 25.4446C86.8985 25.4413 85.1093 24.7757 83.7053 23.568C82.3014 22.3604 81.3752 20.6902 81.0941 18.8591L63.5814 18.9029C63.1039 18.9039 62.6312 18.9991 62.1904 19.183C61.7496 19.3669 61.3494 19.6358 61.0124 19.9745C60.6755 20.3131 60.4086 20.7149 60.2268 21.1568C60.0451 21.5987 59.9521 22.0721 59.9531 22.5499L60.3332 179.505C60.3343 179.983 60.4295 180.456 60.6134 180.897C60.7973 181.339 61.0663 181.739 61.4051 182.076C61.7438 182.414 62.1456 182.681 62.5875 182.862C63.0295 183.044 63.5028 183.137 63.9806 183.135L147.648 182.933C148.125 182.932 148.598 182.837 149.039 182.653C149.479 182.469 149.88 182.2 150.217 181.861C150.553 181.523 150.82 181.121 151.002 180.679C151.184 180.237 151.277 179.764 151.276 179.286L150.896 22.3311C150.895 21.8532 150.8 21.3802 150.616 20.9391C150.432 20.4981 150.163 20.0975 149.825 19.7604C149.486 19.4233 149.085 19.1561 148.643 18.9743C148.202 18.7924 147.729 18.6993 147.251 18.7004L129.446 18.7414Z" fill="#FC5185"/>
<path d="M114.646 20.7307L94.4101 21.0347C94.1081 21.0392 93.867 21.2879 93.8715 21.59L93.8751 21.8308C93.8796 22.133 94.1281 22.3742 94.4301 22.3697L114.666 22.0657C114.968 22.0612 115.21 21.8126 115.205 21.5104L115.201 21.2697C115.197 20.9675 114.948 20.7262 114.646 20.7307Z" fill="#DBDBDB"/>
<path d="M119.743 21.9868C120.185 21.9802 120.538 21.6159 120.532 21.1732C120.525 20.7306 120.161 20.3771 119.719 20.3837C119.276 20.3904 118.923 20.7546 118.93 21.1973C118.936 21.64 119.3 21.9935 119.743 21.9868Z" fill="#DBDBDB"/>
<g opacity="0.5">
<path opacity="0.5" d="M116.77 138.066C116.772 133.396 115.565 128.806 113.268 124.741C110.97 120.677 107.66 117.277 103.66 114.872C99.6596 112.468 95.1053 111.14 90.4402 111.02C85.7752 110.899 81.1585 111.989 77.0395 114.184C72.9204 116.379 69.4394 119.603 66.9354 123.544C64.4313 127.484 62.9894 132.006 62.7502 136.669C62.5109 141.333 63.4824 145.979 65.57 150.155C67.6577 154.331 70.7903 157.895 74.6631 160.501L74.6795 160.621C75.5624 161.468 76.6041 162.131 77.7446 162.572L77.7801 162.451C79.0461 163.546 84.375 165.278 90.4969 165.261H90.6309C94.508 165.261 98.7187 164.577 102.421 162.572C102.421 162.572 102.454 162.501 102.503 162.367C103.441 161.926 104.301 161.336 105.051 160.621C105.066 160.517 105.08 160.415 105.095 160.315C108.697 157.83 111.641 154.507 113.675 150.631C115.709 146.755 116.771 142.443 116.77 138.066Z" fill="url(#paint1_linear_15_673)"/>
</g>
<path d="M89.7396 164.304C104.22 164.304 115.958 152.558 115.958 138.068C115.958 123.579 104.22 111.833 89.7396 111.833C75.2596 111.833 63.5212 123.579 63.5212 138.068C63.5212 152.558 75.2596 164.304 89.7396 164.304Z" fill="#F5F5F5"/>
<path d="M79.7241 148.856C79.7241 148.856 73.4764 149.368 75.1306 160.755C75.986 161.579 76.9962 162.224 78.1027 162.654L81.6161 150.755L79.7241 148.856Z" fill="#FDA57D"/>
<path d="M99.9956 148.856C99.9956 148.856 106.243 149.368 104.589 160.755C103.734 161.579 102.723 162.224 101.617 162.654L98.1035 150.75L99.9956 148.856Z" fill="#FDA57D"/>
<path d="M79.9948 130.194C79.9948 130.194 77.0228 138.851 75.4014 138.03C75.4014 138.03 91.0465 151.554 104.862 138.03C104.862 138.03 102.429 133.702 98.9156 130.186L79.9948 130.194Z" fill="#333333"/>
<path d="M90.0238 141.012C96.4431 141.012 101.647 135.805 101.647 129.382C101.647 122.958 96.4431 117.751 90.0238 117.751C83.6045 117.751 78.4006 122.958 78.4006 129.382C78.4006 135.805 83.6045 141.012 90.0238 141.012Z" fill="#333333"/>
<path opacity="0.1" d="M99.8753 148.856H79.6066L77.7146 156.971C77.7146 156.971 76.6045 160.728 77.988 162.38C79.3715 164.033 92.2824 167.789 101.776 162.654C102.604 160.491 102.7 158.116 102.049 155.893C100.955 152.107 101.776 155.62 101.776 155.62L99.8753 148.856Z" fill="black"/>
<path opacity="0.1" d="M100.146 148.856H79.8745L77.9824 156.971C77.9824 156.971 76.8723 160.728 78.2558 162.38C79.6393 164.033 92.5503 167.789 102.043 162.654C102.871 160.491 102.968 158.116 102.317 155.893C101.223 152.107 102.043 155.62 102.043 155.62L100.146 148.856Z" fill="black"/>
<path d="M99.9955 148.856H79.7241L77.832 156.971C77.832 156.971 76.7219 160.728 78.1054 162.38C79.4889 164.033 92.3999 167.789 101.893 162.654C102.721 160.491 102.817 158.116 102.166 155.893C101.073 152.107 101.893 155.62 101.893 155.62L99.9955 148.856Z" fill="#FC5185"/>
<path opacity="0.1" d="M85.9418 142.123H94.0569V149.975C94.0569 150.329 93.9872 150.68 93.8519 151.007C93.7165 151.334 93.5182 151.631 93.2681 151.881C93.018 152.131 92.7211 152.33 92.3943 152.465C92.0676 152.601 91.7174 152.67 91.3637 152.67H88.6295C87.9152 152.67 87.2302 152.386 86.7251 151.881C86.22 151.376 85.9363 150.69 85.9363 149.975V142.123H85.9418Z" fill="black"/>
<path d="M85.9418 141.825H94.0569V149.677C94.0569 150.031 93.9872 150.381 93.8519 150.708C93.7165 151.035 93.5182 151.333 93.2681 151.583C93.018 151.833 92.7211 152.032 92.3943 152.167C92.0676 152.302 91.7174 152.372 91.3637 152.372H88.6295C87.9152 152.372 87.2302 152.088 86.7251 151.583C86.22 151.077 85.9363 150.392 85.9363 149.677V141.825H85.9418Z" fill="#FDA57D"/>
<path opacity="0.1" d="M85.9583 142.993C88.5719 143.97 91.449 143.978 94.0679 143.015V142.019H85.9583V142.993Z" fill="black"/>
<path d="M90.0238 143.538C96.4431 143.538 101.647 138.33 101.647 131.907C101.647 125.484 96.4431 120.276 90.0238 120.276C83.6045 120.276 78.4006 125.484 78.4006 131.907C78.4006 138.33 83.6045 143.538 90.0238 143.538Z" fill="#FDA57D"/>
<path d="M78.9148 127.488H101.078C101.078 127.488 99.1862 118.534 90.8086 119.105C82.431 119.677 78.9148 127.488 78.9148 127.488Z" fill="#333333"/>
<path d="M78.6442 133.439C79.2407 133.439 79.7242 132.531 79.7242 131.412C79.7242 130.292 79.2407 129.384 78.6442 129.384C78.0477 129.384 77.5642 130.292 77.5642 131.412C77.5642 132.531 78.0477 133.439 78.6442 133.439Z" fill="#FDA57D"/>
<path d="M101.346 133.439C101.943 133.439 102.426 132.531 102.426 131.412C102.426 130.292 101.943 129.384 101.346 129.384C100.75 129.384 100.266 130.292 100.266 131.412C100.266 132.531 100.75 133.439 101.346 133.439Z" fill="#FDA57D"/>
<path opacity="0.1" d="M78.9148 127.789H101.078C101.078 127.789 99.1862 118.834 90.8086 119.406C82.431 119.978 78.9148 127.789 78.9148 127.789Z" fill="black"/>
<g opacity="0.5">
<path opacity="0.5" d="M94.8609 66.7168C94.8592 62.0473 96.0658 57.4568 98.3632 53.3923C100.661 49.3279 103.971 45.9279 107.971 43.5233C111.971 41.1188 116.526 39.7916 121.191 39.671C125.856 39.5504 130.472 40.6405 134.591 42.8352C138.71 45.0299 142.191 48.2543 144.695 52.1947C147.2 56.1351 148.641 60.657 148.881 65.3205C149.12 69.9839 148.148 74.6299 146.061 78.8061C143.973 82.9824 140.84 86.5466 136.968 89.1519L136.951 89.2722C136.07 90.1266 135.029 90.7972 133.886 91.2449L133.851 91.1245C132.585 92.2189 127.256 93.9508 121.134 93.9343H121C117.123 93.9343 112.912 93.2503 109.21 91.2449C109.21 91.2449 109.177 91.1737 109.128 91.0397C108.19 90.5988 107.33 90.0094 106.58 89.2941C106.565 89.1902 106.551 89.088 106.536 88.9877C102.931 86.5011 99.9845 83.1745 97.9506 79.2946C95.9167 75.4147 94.8563 71.0981 94.8609 66.7168Z" fill="url(#paint2_linear_15_673)"/>
</g>
<path d="M121.889 92.9548C136.369 92.9548 148.107 81.2089 148.107 66.7196C148.107 52.2302 136.369 40.4843 121.889 40.4843C107.409 40.4843 95.6702 52.2302 95.6702 66.7196C95.6702 81.2089 107.409 92.9548 121.889 92.9548Z" fill="#F5F5F5"/>
<path d="M111.611 76.7114C111.611 76.7114 105.363 77.223 107.017 88.6101C107.873 89.4315 108.883 90.075 109.989 90.5034L113.503 78.6047L111.611 76.7114Z" fill="#BE7C5E"/>
<path d="M131.879 76.7114C131.879 76.7114 138.127 77.223 136.473 88.6101C135.617 89.4315 134.607 90.075 133.501 90.5034L129.987 78.6047L131.879 76.7114Z" fill="#BE7C5E"/>
<path d="M111.878 58.0493C111.878 58.0493 111.397 59.4501 110.716 61.0588C109.229 64.6156 110.927 78.2162 114.484 79.6635C118.476 81.3051 123.726 82.3338 129.181 80.3447C133.919 78.6156 135.382 63.1081 132.03 59.3461C131.636 58.9029 131.226 58.4624 130.796 58.0356L111.878 58.0493Z" fill="#333333"/>
<path d="M121.908 68.87C128.327 68.87 133.531 63.6628 133.531 57.2394C133.531 50.816 128.327 45.6087 121.908 45.6087C115.488 45.6087 110.284 50.816 110.284 57.2394C110.284 63.6628 115.488 68.87 121.908 68.87Z" fill="#333333"/>
<path opacity="0.1" d="M131.762 76.7114H111.49L109.598 84.8263C109.598 84.8263 108.488 88.5828 109.872 90.2353C111.255 91.8878 124.166 95.6443 133.659 90.5089C134.487 88.346 134.583 85.9711 133.933 83.7483C132.839 79.9617 133.659 83.4747 133.659 83.4747L131.762 76.7114Z" fill="black"/>
<path opacity="0.1" d="M132.03 76.7114H111.758L109.866 84.8263C109.866 84.8263 108.756 88.5828 110.14 90.2353C111.523 91.8878 124.434 95.6443 133.927 90.5089C134.755 88.346 134.851 85.9711 134.201 83.7483C133.107 79.9617 133.927 83.4747 133.927 83.4747L132.03 76.7114Z" fill="black"/>
<path d="M131.879 76.7114H111.611L109.718 84.8263C109.718 84.8263 108.608 88.5828 109.992 90.2353C111.375 91.8878 124.286 95.6443 133.78 90.5089C134.608 88.346 134.704 85.9711 134.053 83.7483C132.959 79.9617 133.78 83.4747 133.78 83.4747L131.879 76.7114Z" fill="#F55F44"/>
<path opacity="0.1" d="M117.825 69.9809H125.935V77.8331C125.935 78.5478 125.651 79.2333 125.146 79.7387C124.641 80.2441 123.956 80.528 123.242 80.528H120.508C119.793 80.528 119.108 80.2441 118.603 79.7387C118.098 79.2333 117.814 78.5478 117.814 77.8331V69.9809H117.825Z" fill="black"/>
<path d="M117.825 69.6799H125.935V77.5322C125.935 78.2469 125.651 78.9324 125.146 79.4378C124.641 79.9432 123.956 80.2271 123.242 80.2271H120.508C119.793 80.2271 119.108 79.9432 118.603 79.4378C118.098 78.9324 117.814 78.2469 117.814 77.5322V69.6799H117.825Z" fill="#BE7C5E"/>
<path opacity="0.1" d="M117.844 70.8482C120.458 71.8253 123.335 71.8331 125.954 70.87V69.8741H117.844V70.8482Z" fill="black"/>
<path d="M121.908 71.3926C128.327 71.3926 133.531 66.1854 133.531 59.762C133.531 53.3385 128.327 48.1313 121.908 48.1313C115.488 48.1313 110.284 53.3385 110.284 59.762C110.284 66.1854 115.488 71.3926 121.908 71.3926Z" fill="#BE7C5E"/>
<path d="M110.799 55.3461H132.962C132.962 55.3461 131.07 46.3912 122.692 46.9631C114.315 47.5349 110.799 55.3461 110.799 55.3461Z" fill="#333333"/>
<path d="M110.528 61.2941C111.124 61.2941 111.608 60.3865 111.608 59.2668C111.608 58.1471 111.124 57.2394 110.528 57.2394C109.931 57.2394 109.448 58.1471 109.448 59.2668C109.448 60.3865 109.931 61.2941 110.528 61.2941Z" fill="#BE7C5E"/>
<path d="M133.23 61.2941C133.826 61.2941 134.31 60.3865 134.31 59.2668C134.31 58.1471 133.826 57.2394 133.23 57.2394C132.633 57.2394 132.15 58.1471 132.15 59.2668C132.15 60.3865 132.633 61.2941 133.23 61.2941Z" fill="#BE7C5E"/>
<path opacity="0.1" d="M110.799 55.6471H132.962C132.962 55.6471 131.07 46.6922 122.692 47.264C114.315 47.8358 110.799 55.6471 110.799 55.6471Z" fill="black"/>
<g opacity="0.5">
<path opacity="0.5" d="M1.36719 43.2585V82.3064H62.8487C62.8487 82.3064 67.3875 91.2449 75.1909 93.844C75.1909 93.844 72.7 87.513 75.3003 82.3064H92.4164V43.2585H1.36719Z" fill="url(#paint3_linear_15_673)"/>
</g>
<path d="M3.82788 44.5964V81.5321H65.3477C65.3477 81.5321 65.3477 88.9193 72.73 91.3817C72.73 91.3817 70.2692 86.4569 72.73 81.5321H89.9556V44.5964H3.82788Z" fill="white"/>
<path d="M60.426 51.9836H11.2102V56.9083H60.426V51.9836Z" fill="#FC5185"/>
<path d="M77.6516 59.3707H11.2102V64.2955H77.6516V59.3707Z" fill="#FC5185"/>
<path d="M70.2692 66.7579H11.2102V71.6826H70.2692V66.7579Z" fill="#FC5185"/>
<g opacity="0.5">
<path opacity="0.5" d="M210.534 118.498V157.546H149.056C149.056 157.546 144.517 166.484 136.711 169.083C136.711 169.083 139.201 162.752 136.601 157.546H119.485V118.498H210.534Z" fill="url(#paint4_linear_15_673)"/>
</g>
<path d="M208.073 119.836V156.772H146.554C146.554 156.772 146.554 164.159 139.171 166.621C139.171 166.621 141.632 161.696 139.171 156.772H121.946V119.836H208.073Z" fill="white"/>
<path d="M181.278 127.223H132.062V132.148H181.278V127.223Z" fill="#FC5185"/>
<path d="M198.504 134.61H132.062V139.535H198.504V134.61Z" fill="#FC5185"/>
<path d="M191.121 141.997H132.062V146.922H191.121V141.997Z" fill="#FC5185"/>
<g opacity="0.5">
<path opacity="0.5" d="M23.7878 195.349H22.9675V200H23.7878V195.349Z" fill="#47E6B1"/>
<path opacity="0.5" d="M25.7017 198.085V197.264H21.0535V198.085H25.7017Z" fill="#47E6B1"/>
</g>
<g opacity="0.5">
<path opacity="0.5" d="M173.896 52.5308H173.076V57.1819H173.896V52.5308Z" fill="#47E6B1"/>
<path opacity="0.5" d="M175.81 55.2668V54.446H171.162V55.2668H175.81Z" fill="#47E6B1"/>
</g>
<g opacity="0.5">
<path opacity="0.5" d="M191.395 167.442H190.575V172.093H191.395V167.442Z" fill="#47E6B1"/>
<path opacity="0.5" d="M193.309 170.178V169.357H188.661V170.178H193.309Z" fill="#47E6B1"/>
</g>
<g opacity="0.5">
<path opacity="0.5" d="M139.718 0H138.898V4.65116H139.718V0Z" fill="#47E6B1"/>
<path opacity="0.5" d="M141.632 2.73598V1.91518L136.984 1.91518V2.73598L141.632 2.73598Z" fill="#47E6B1"/>
</g>
<path opacity="0.5" d="M70.7339 194.886C70.5101 194.786 70.3309 194.607 70.2302 194.383C70.1294 194.159 70.1141 193.906 70.1871 193.672C70.1988 193.635 70.2061 193.598 70.209 193.56C70.2159 193.451 70.1878 193.344 70.1287 193.253C70.0696 193.162 69.9827 193.092 69.8809 193.055C69.7792 193.017 69.668 193.014 69.5641 193.044C69.4601 193.075 69.3689 193.139 69.3039 193.226C69.282 193.256 69.2636 193.289 69.2493 193.324C69.1487 193.548 68.9697 193.728 68.746 193.828C68.5223 193.929 68.2695 193.944 68.0353 193.871C67.9989 193.86 67.9613 193.852 67.9232 193.85C67.815 193.843 67.7074 193.871 67.6165 193.93C67.5256 193.989 67.4562 194.076 67.4187 194.178C67.3812 194.28 67.3776 194.391 67.4084 194.495C67.4392 194.599 67.5027 194.69 67.5896 194.755C67.6202 194.777 67.6532 194.796 67.688 194.81C67.9118 194.91 68.091 195.09 68.1918 195.313C68.2926 195.537 68.3079 195.79 68.2349 196.025C68.2232 196.061 68.2158 196.099 68.213 196.137C68.206 196.245 68.2342 196.353 68.2933 196.444C68.3524 196.535 68.4393 196.604 68.5411 196.642C68.6428 196.679 68.7539 196.683 68.8579 196.652C68.9619 196.621 69.0531 196.557 69.118 196.471C69.14 196.44 69.1584 196.407 69.1727 196.372C69.2732 196.148 69.4523 195.969 69.6759 195.868C69.8996 195.767 70.1525 195.752 70.3867 195.825C70.4231 195.837 70.4607 195.844 70.4988 195.847C70.607 195.854 70.7146 195.826 70.8055 195.766C70.8964 195.707 70.9657 195.62 71.0032 195.519C71.0407 195.417 71.0444 195.306 71.0136 195.201C70.9828 195.097 70.9192 195.006 70.8324 194.941C70.8018 194.919 70.7688 194.901 70.7339 194.886Z" fill="#4D8AF0"/>
<path opacity="0.5" d="M15.8311 108.06C15.6073 107.96 15.4281 107.78 15.3273 107.557C15.2266 107.333 15.2113 107.08 15.2843 106.845C15.296 106.809 15.3033 106.771 15.3061 106.733C15.3131 106.625 15.285 106.517 15.2258 106.426C15.1667 106.335 15.0798 106.266 14.9781 106.228C14.8763 106.191 14.7652 106.187 14.6612 106.218C14.5573 106.249 14.466 106.313 14.4011 106.399C14.3791 106.43 14.3608 106.463 14.3464 106.498C14.2459 106.722 14.0669 106.901 13.8432 107.002C13.6195 107.103 13.3667 107.118 13.1324 107.045C13.0961 107.033 13.0584 107.026 13.0203 107.023C12.9121 107.016 12.8046 107.044 12.7137 107.104C12.6228 107.163 12.5534 107.25 12.5159 107.352C12.4784 107.453 12.4748 107.565 12.5056 107.669C12.5364 107.773 12.5999 107.864 12.6868 107.929C12.7173 107.951 12.7504 107.969 12.7852 107.984C13.009 108.084 13.1882 108.263 13.289 108.487C13.3897 108.711 13.405 108.964 13.332 109.198C13.3203 109.235 13.313 109.272 13.3102 109.311C13.2987 109.421 13.3239 109.532 13.3819 109.626C13.4399 109.721 13.5274 109.793 13.6308 109.833C13.7343 109.872 13.8479 109.877 13.954 109.845C14.0602 109.814 14.1529 109.748 14.2179 109.658C14.2399 109.627 14.2583 109.594 14.2726 109.56C14.3731 109.336 14.5522 109.156 14.7758 109.055C14.9995 108.955 15.2524 108.939 15.4866 109.012C15.523 109.024 15.5606 109.031 15.5987 109.034C15.7069 109.041 15.8145 109.013 15.9054 108.954C15.9963 108.895 16.0656 108.808 16.1031 108.706C16.1406 108.604 16.1443 108.493 16.1135 108.389C16.0827 108.285 16.0191 108.194 15.9323 108.129C15.9016 108.102 15.8676 108.079 15.8311 108.06Z" fill="#4D8AF0"/>
<path opacity="0.5" d="M45.6341 131.863C45.4103 131.763 45.2311 131.583 45.1303 131.36C45.0296 131.136 45.0142 130.883 45.0872 130.648C45.0989 130.612 45.1063 130.574 45.1091 130.536C45.1161 130.428 45.0879 130.32 45.0288 130.229C44.9697 130.138 44.8828 130.069 44.7811 130.031C44.6793 129.994 44.5682 129.99 44.4642 130.021C44.3603 130.052 44.269 130.116 44.2041 130.202C44.1821 130.233 44.1637 130.266 44.1494 130.301C44.0489 130.525 43.8699 130.704 43.6462 130.805C43.4225 130.906 43.1696 130.921 42.9354 130.848C42.899 130.836 42.8614 130.829 42.8233 130.826C42.7151 130.819 42.6075 130.847 42.5167 130.907C42.4258 130.966 42.3564 131.053 42.3189 131.155C42.2814 131.256 42.2778 131.368 42.3085 131.472C42.3393 131.576 42.4029 131.667 42.4897 131.732C42.5203 131.754 42.5534 131.772 42.5882 131.787C42.812 131.887 42.9912 132.066 43.0919 132.29C43.1927 132.514 43.208 132.767 43.135 133.001C43.1233 133.038 43.116 133.075 43.1131 133.114C43.1017 133.224 43.1269 133.335 43.1849 133.429C43.2429 133.524 43.3304 133.596 43.4338 133.636C43.5372 133.675 43.6508 133.68 43.757 133.648C43.8631 133.616 43.9559 133.551 44.0209 133.461C44.0429 133.43 44.0613 133.397 44.0756 133.363C44.1761 133.139 44.3551 132.959 44.5788 132.858C44.8025 132.758 45.0554 132.742 45.2896 132.815C45.326 132.827 45.3636 132.834 45.4017 132.837C45.5099 132.844 45.6175 132.816 45.7083 132.757C45.7992 132.698 45.8686 132.611 45.9061 132.509C45.9436 132.407 45.9472 132.296 45.9164 132.192C45.8857 132.088 45.8221 131.997 45.7352 131.932C45.7045 131.905 45.6706 131.882 45.6341 131.863Z" fill="#4D8AF0"/>
<path opacity="0.5" d="M215.702 196.432C215.478 196.332 215.299 196.153 215.198 195.929C215.097 195.705 215.082 195.452 215.155 195.218C215.167 195.181 215.174 195.143 215.177 195.105C215.184 194.997 215.156 194.889 215.097 194.798C215.038 194.708 214.951 194.638 214.849 194.601C214.747 194.563 214.636 194.559 214.532 194.59C214.428 194.621 214.337 194.685 214.272 194.772C214.25 194.802 214.232 194.835 214.217 194.87C214.117 195.094 213.938 195.273 213.714 195.374C213.49 195.475 213.238 195.49 213.003 195.417C212.967 195.406 212.929 195.398 212.891 195.395C212.783 195.388 212.675 195.417 212.585 195.476C212.494 195.535 212.424 195.622 212.387 195.724C212.349 195.825 212.346 195.937 212.376 196.041C212.407 196.145 212.471 196.236 212.558 196.301C212.588 196.323 212.621 196.341 212.656 196.356C212.88 196.456 213.059 196.635 213.16 196.859C213.261 197.083 213.276 197.336 213.203 197.57C213.191 197.607 213.184 197.645 213.181 197.683C213.17 197.793 213.195 197.904 213.253 197.998C213.311 198.093 213.398 198.165 213.502 198.205C213.605 198.244 213.719 198.249 213.825 198.217C213.931 198.186 214.024 198.12 214.089 198.03C214.111 198 214.129 197.966 214.143 197.932C214.244 197.708 214.423 197.528 214.647 197.428C214.87 197.327 215.123 197.311 215.357 197.384C215.394 197.396 215.431 197.403 215.47 197.406C215.578 197.413 215.685 197.385 215.776 197.326C215.867 197.267 215.937 197.18 215.974 197.078C216.012 196.976 216.015 196.865 215.984 196.761C215.954 196.657 215.89 196.566 215.803 196.501C215.772 196.474 215.738 196.451 215.702 196.432Z" fill="#4D8AF0"/>
<path opacity="0.5" d="M1.64053 181.943C2.54657 181.943 3.28105 181.208 3.28105 180.301C3.28105 179.394 2.54657 178.659 1.64053 178.659C0.734489 178.659 0 179.394 0 180.301C0 181.208 0.734489 181.943 1.64053 181.943Z" fill="#F55F44"/>
<path opacity="0.5" d="M186.747 19.1518C187.653 19.1518 188.387 18.4169 188.387 17.5103C188.387 16.6036 187.653 15.8687 186.747 15.8687C185.841 15.8687 185.106 16.6036 185.106 17.5103C185.106 18.4169 185.841 19.1518 186.747 19.1518Z" fill="#4D8AF0"/>
<path opacity="0.5" d="M28.4357 22.435C29.3417 22.435 30.0762 21.7001 30.0762 20.7934C30.0762 19.8868 29.3417 19.1518 28.4357 19.1518C27.5297 19.1518 26.7952 19.8868 26.7952 20.7934C26.7952 21.7001 27.5297 22.435 28.4357 22.435Z" fill="#47E6B1"/>
<path opacity="0.5" d="M188.387 96.3064C189.293 96.3064 190.028 95.5715 190.028 94.6648C190.028 93.7582 189.293 93.0233 188.387 93.0233C187.481 93.0233 186.747 93.7582 186.747 94.6648C186.747 95.5715 187.481 96.3064 188.387 96.3064Z" fill="#F55F44"/>
</g>
</svg>
