<svg width="216" height="131" viewBox="0 0 216 131" fill="none" xmlns="http://www.w3.org/2000/svg">
<defs>
<clipPath id="clip0_15_577">
<rect width="216" height="131" fill="white"/>
</clipPath>
</defs>
<g clip-path="url(#clip0_15_577)">
<path d="M137.369 131C180.796 131 216 127.834 216 123.928C216 120.022 180.796 116.855 137.369 116.855C93.9419 116.855 58.7375 120.022 58.7375 123.928C58.7375 127.834 93.9419 131 137.369 131Z" fill="#3F3D56"/>
<path opacity="0.3" d="M98.9348 57.7873L184.283 57.7873V7.62939e-06L98.9348 7.62939e-06V57.7873Z" fill="#3F3D56"/>
<path d="M178.836 20.191V17.9305C178.836 10.9519 173.178 5.29465 166.2 5.29465C159.221 5.29465 153.564 10.9519 153.564 17.9305V20.191C153.564 27.1696 159.221 32.8268 166.2 32.8268C173.178 32.8268 178.836 27.1696 178.836 20.191Z" fill="#F2F2F2"/>
<path d="M113.613 6.95868L137.977 6.95868V5.29465L113.613 5.29465V6.95868Z" fill="#F2F2F2"/>
<path d="M153.564 38.7266H162.189V37.0626H153.564V38.7266Z" fill="#F2F2F2"/>
<path d="M153.866 41.7521H178.533V40.0881H153.866V41.7521Z" fill="#F2F2F2"/>
<path d="M108.62 13.0097L143.728 13.0097V11.3457L108.62 11.3457V13.0097Z" fill="#F2F2F2"/>
<path d="M108.62 17.6993L143.728 17.6993V16.0352L108.62 16.0352V17.6993Z" fill="#F2F2F2"/>
<path d="M108.62 22.3888L143.728 22.3888V20.7248L108.62 20.7248V22.3888Z" fill="#F2F2F2"/>
<path d="M108.62 27.0784L143.728 27.0784V25.4143L108.62 25.4143V27.0784Z" fill="#F2F2F2"/>
<path d="M108.62 31.7679L143.728 31.7679V30.1039L108.62 30.1039V31.7679Z" fill="#F2F2F2"/>
<path d="M108.62 36.4575L143.728 36.4575V34.7934L108.62 34.7934V36.4575Z" fill="#F2F2F2"/>
<path d="M108.62 41.147L143.728 41.147V39.483L108.62 39.483V41.147Z" fill="#F2F2F2"/>
<path d="M157.359 21.0161C157.733 20.75 158.146 20.5431 158.583 20.4026C161.353 19.3721 164.256 18.7403 167.205 18.5264C169.769 18.3446 172.547 18.5605 174.55 20.1712C174.861 20.3997 175.116 20.6965 175.295 21.0389C175.547 21.5823 175.47 22.214 175.389 22.8074C175.37 23.0376 175.312 23.2628 175.217 23.4732C174.948 23.9861 174.284 24.1657 173.708 24.1042C173.132 24.0427 172.591 23.799 172.023 23.686C171.671 23.6247 171.315 23.5885 170.958 23.5776L167.394 23.3847C165.177 23.2648 162.931 23.1468 160.757 23.594C160.087 23.7143 159.441 23.9371 158.839 24.2546C158.343 24.5333 158.008 24.9333 157.547 24.4184C156.738 23.5139 156.29 21.8515 157.359 21.0161Z" fill="#2F2E41"/>
<path d="M162.883 22.5919C162.883 22.5919 167.678 20.4433 169.496 22.9225C171.315 25.4016 168.504 24.41 168.504 24.41L165.363 25.4016L161.891 24.7405L162.883 22.5919Z" fill="#F2F2F2"/>
<path d="M163.131 21.0218C163.131 21.0218 163.792 24.1621 163.296 24.9885C162.8 25.8148 166.107 26.9718 166.107 26.9718L169.248 25.6496C169.248 25.6496 168.422 20.526 169.248 19.5343L163.131 21.0218Z" fill="#FFB9B9"/>
<path opacity="0.1" d="M163.131 21.0218C163.131 21.0218 163.792 24.1621 163.296 24.9885C162.8 25.8148 166.107 26.9718 166.107 26.9718L169.248 25.6496C169.248 25.6496 168.422 20.526 169.248 19.5343L163.131 21.0218Z" fill="black"/>
<path d="M170.736 17.8815C170.735 19.1962 170.212 20.4568 169.282 21.3864C168.352 22.316 167.091 22.8388 165.776 22.8398C165.481 22.8403 165.186 22.8138 164.895 22.7605C163.967 22.5929 163.106 22.1642 162.412 21.5247C161.719 20.8851 161.223 20.0612 160.982 19.1497C160.74 18.2381 160.764 17.2766 161.05 16.3781C161.336 15.4795 161.872 14.6811 162.596 14.0765C163.32 13.4719 164.201 13.0862 165.137 12.9646C166.072 12.843 167.023 12.9905 167.877 13.3899C168.732 13.7894 169.455 14.4241 169.961 15.2196C170.467 16.0152 170.736 16.9386 170.736 17.8815Z" fill="#FFB9B9"/>
<path d="M173.731 32.9781H157.913L158.272 31.4215L159.824 24.6579L161.619 23.4462L161.621 23.4447L162.463 22.8744L162.883 22.5915C162.883 22.5915 163.131 22.705 163.417 22.8593C163.5 22.9061 163.585 22.9546 163.67 23.006C163.671 23.0045 163.671 23.006 163.671 23.006C163.808 23.0857 163.939 23.1762 164.061 23.2768C164.084 23.298 164.104 23.3161 164.124 23.3358C164.438 23.6504 165.357 25.3205 166.876 24.4658C166.953 24.4237 167.027 24.3772 167.099 24.3267C167.495 24.0527 167.872 23.753 168.229 23.4296C168.548 23.1376 168.756 22.9122 168.925 22.7564C169.001 22.6806 169.088 22.6164 169.182 22.5658C169.254 22.5283 169.333 22.5091 169.414 22.5098C169.91 22.5098 170.572 23.5007 170.572 23.5007L170.591 23.5582L170.593 23.5627L172.68 29.8255L173.731 32.9781Z" fill="#F2F2F2"/>
<path d="M157.913 32.9781H162.707C162.718 32.4241 162.689 31.87 162.621 31.3201C162.474 30.2143 162.114 29.1493 161.887 28.0571C161.687 27.1 161.59 26.1243 161.598 25.1466C161.599 25.0119 161.602 24.8758 161.614 24.7396C161.626 24.4279 161.716 24.1241 161.876 23.8562C161.99 23.6822 162.145 23.534 162.266 23.3676C162.309 23.3131 162.346 23.2549 162.377 23.1936V23.1921C162.392 23.162 162.406 23.1312 162.418 23.0998C162.444 23.0275 162.46 22.9514 162.463 22.8744C162.49 22.3752 162.038 21.8941 161.549 21.6884C160.863 21.4309 160.112 21.4007 159.408 21.6022C158.71 21.804 158.035 22.0798 157.395 22.4251C157.179 22.531 156.964 22.6399 156.757 22.761C156.509 22.9013 156.282 23.0743 156.08 23.2753C155.566 23.8063 155.34 24.546 155.159 25.2615C154.986 25.8085 154.926 26.3851 154.985 26.9558C154.986 26.974 154.991 26.9937 154.994 27.0118C155.174 27.9543 155.943 28.6622 156.353 29.5306C156.828 30.538 156.796 31.7119 156.607 32.8102C156.598 32.8662 156.587 32.9222 156.577 32.9781H157.913V32.9781Z" fill="#2F2E41"/>
<path d="M177.428 26.9256C176.826 28.9036 176.39 30.928 176.122 32.9781H169.288C169.11 32.491 168.932 32.0034 168.754 31.5153C168.612 31.1469 168.49 30.7712 168.389 30.3898C168.281 29.9463 168.23 29.4908 168.236 29.0343C168.236 28.9254 168.241 28.815 168.25 28.7061C168.251 28.7052 168.251 28.7042 168.251 28.7031C168.251 28.7019 168.251 28.7009 168.25 28.7C168.292 28.1243 168.425 27.559 168.645 27.0254C168.746 26.7828 168.862 26.5469 168.993 26.3189C169.311 25.7441 169.695 25.2025 170.037 24.6398C170.25 24.2959 170.436 23.9357 170.593 23.5627C170.592 23.5619 170.593 23.561 170.593 23.5603C170.593 23.5595 170.594 23.5588 170.594 23.5582C170.798 23.0825 170.905 22.5706 170.907 22.053C170.897 21.3858 169.768 20.2225 170.995 20.3345C172.67 20.4857 174.109 21.4494 175.421 22.5477C175.771 22.8411 176.113 23.1452 176.447 23.4447C176.965 23.9106 177.511 24.4189 177.667 25.0981C177.692 25.2064 177.707 25.3169 177.711 25.4279C177.702 25.9395 177.606 26.4459 177.428 26.9256Z" fill="#2F2E41"/>
<path d="M167.185 25.1011C167.013 24.6365 166.749 24.2111 166.409 23.8505C166.066 23.5608 165.66 23.3552 165.224 23.2503C164.658 23.0887 164.073 23.0049 163.485 23.0011C162.785 22.9968 161.973 23.1845 161.676 23.8183C161.44 24.3215 161.623 24.9174 161.861 25.4199C161.962 25.6802 162.131 25.9087 162.351 26.0818C162.653 26.2858 163.043 26.2793 163.401 26.3476C163.956 26.4885 164.482 26.7266 164.954 27.0509L166.18 27.792L168.287 29.0649C168.231 29.0313 168.251 27.5872 168.186 27.3506C167.978 26.5882 167.508 25.8231 167.185 25.1011Z" fill="#FFB9B9"/>
<path d="M170.612 15.2975C170.523 15.001 170.329 14.7473 170.066 14.585C170.079 14.2674 170.04 13.9497 169.95 13.6447C169.65 12.757 168.938 12.8079 168.267 12.4154C167.976 12.2451 167.994 12.0946 167.842 11.8149C167.643 11.4483 167.346 11.1448 166.983 10.9388C166.552 10.6644 166.097 10.3819 165.588 10.3472C164.517 10.2742 163.696 11.2811 162.673 11.6043C162.221 11.7467 161.737 11.7526 161.283 11.8872C160.83 12.0219 160.377 12.3434 160.31 12.8115C160.278 13.0276 160.333 13.2492 160.302 13.4653C160.239 13.8947 159.862 14.1954 159.61 14.5486C159.052 15.3296 159.116 16.4329 159.562 17.2826C159.656 17.4585 159.763 17.6267 159.883 17.7859C159.921 18.1875 160.036 18.578 160.223 18.9354C160.669 19.7852 161.437 20.4202 162.239 20.9477C162.173 20.6659 162.133 20.3787 162.12 20.0896C162.109 19.9933 162.121 19.8957 162.156 19.8053C162.246 19.6187 162.482 19.5691 162.662 19.4668C163.034 19.2551 163.18 18.7866 163.191 18.3583C163.202 17.9299 163.111 17.5009 163.156 17.0747C163.158 16.9767 163.18 16.8802 163.221 16.7913C163.263 16.7025 163.322 16.6233 163.396 16.5588C163.534 16.4804 163.691 16.443 163.849 16.4509C164.613 16.4198 165.41 16.4058 166.084 16.0448C166.301 15.9006 166.535 15.7825 166.779 15.693C167.352 15.5438 167.937 15.9449 168.267 16.4357C168.597 16.9265 168.761 17.5106 169.065 18.0177C169.37 18.5247 169.896 18.9769 170.484 18.9168C170.517 18.9169 170.55 18.9099 170.58 18.8965C170.61 18.883 170.638 18.8633 170.66 18.8387C170.685 18.7931 170.696 18.741 170.692 18.689L170.725 16.4404C170.752 16.0558 170.714 15.6693 170.612 15.2975Z" fill="#2F2E41"/>
<path d="M157.53 30.3142C157.637 31.1991 157.703 32.0871 157.725 32.9781H153.564V29.4821C153.585 29.3974 153.608 29.3142 153.635 29.231C153.895 28.4292 154.441 27.7576 154.915 27.0602C154.938 27.0254 154.962 26.9906 154.985 26.9558C155.186 26.6616 155.359 26.3491 155.502 26.0225C155.57 25.8621 155.679 25.0861 155.794 25.0195C156.288 24.7336 156.689 25.9559 156.757 26.2282C156.999 27.1979 157.209 28.1766 157.368 29.1645C157.43 29.5472 157.484 29.9304 157.53 30.3142Z" fill="#2F2E41"/>
<path d="M178.56 32.9781H169.007C168.925 32.786 168.845 32.5939 168.76 32.4033C168.164 31.0563 167.394 29.7934 166.469 28.6471C166.317 28.4955 166.217 28.2986 166.186 28.0859C166.183 27.9975 166.204 27.91 166.248 27.8332C166.393 27.5624 166.778 27.4036 167.09 27.275C167.412 27.1453 167.708 26.9588 167.964 26.7244C168.191 26.5205 168.364 26.2645 168.47 25.9786C168.498 25.8947 168.519 25.8087 168.533 25.7214C168.577 25.7789 168.622 25.8379 168.666 25.8954C168.774 26.0376 168.883 26.1783 168.993 26.319C170.053 27.6789 171.216 29.0192 172.68 29.8255C173.062 30.0385 173.466 30.2104 173.884 30.3384C173.924 30.356 173.967 30.365 174.011 30.365C174.055 30.365 174.098 30.356 174.138 30.3384C174.2 30.2877 174.24 30.215 174.249 30.1356C174.379 29.5911 174.424 29.0298 174.52 28.4777C174.695 27.4731 175.032 26.5034 175.517 25.6065C175.788 25.1027 176.669 23.2617 177.227 24.422C177.387 24.7563 177.549 25.0916 177.711 25.428C177.813 25.6413 177.915 25.853 178.018 26.0664C178.398 26.743 178.571 27.5161 178.516 28.2901C178.531 29.8543 178.546 31.4169 178.56 32.9781Z" fill="#2F2E41"/>
<path opacity="0.1" d="M157.913 32.9781H158.741L158.272 31.4215L157.595 29.1781C157.603 29.5579 157.581 29.9377 157.53 30.3141C157.428 31.0921 157.205 31.8495 156.87 32.5591C156.805 32.6967 156.736 32.8359 156.68 32.9781H157.913Z" fill="black"/>
<path opacity="0.1" d="M174.774 28.1942C174.657 28.5076 174.763 28.8541 174.853 29.1761C175.113 30.1102 175.235 31.0774 175.214 32.0468C175.217 32.0638 175.217 32.0814 175.212 32.0981C175.207 32.1148 175.199 32.1301 175.186 32.1425C175.174 32.155 175.159 32.1642 175.143 32.1693C175.126 32.1745 175.108 32.1754 175.091 32.1721C174.71 32.1954 174.273 32.1979 174.014 31.9167L174.774 28.1942Z" fill="black"/>
<path opacity="0.3" d="M85.3484 0.594788H0V58.3821H85.3484V0.594788Z" fill="#3F3D56"/>
<path d="M30.7194 20.7858V18.5252C30.7194 11.5467 25.0621 5.88944 18.0836 5.88944C11.105 5.88944 5.44775 11.5467 5.44775 18.5253V20.7858C5.44775 27.7644 11.105 33.4216 18.0836 33.4216C25.0621 33.4216 30.7194 27.7644 30.7194 20.7858Z" fill="#F2F2F2"/>
<path d="M70.6698 5.88944H46.3062V7.55347H70.6698V5.88944Z" fill="#F2F2F2"/>
<path d="M14.3761 37.6573H5.75049V39.3214H14.3761V37.6573Z" fill="#F2F2F2"/>
<path d="M30.4168 40.6829H5.75049V42.3469H30.4168V40.6829Z" fill="#F2F2F2"/>
<path d="M75.6635 11.9405H40.5557V13.6045H75.6635V11.9405Z" fill="#F2F2F2"/>
<path d="M75.6635 16.63H40.5557V18.294H75.6635V16.63Z" fill="#F2F2F2"/>
<path d="M75.6635 21.3196H40.5557V22.9836H75.6635V21.3196Z" fill="#F2F2F2"/>
<path d="M75.6635 26.0091H40.5557V27.6731H75.6635V26.0091Z" fill="#F2F2F2"/>
<path d="M75.6635 30.6987H40.5557V32.3627H75.6635V30.6987Z" fill="#F2F2F2"/>
<path d="M75.6635 35.3882H40.5557V37.0522H75.6635V35.3882Z" fill="#F2F2F2"/>
<path d="M75.6635 40.0778H40.5557V41.7418H75.6635V40.0778Z" fill="#F2F2F2"/>
<path d="M30.0324 33.5729H26.7471C26.4944 32.8937 26.2699 32.2059 26.0737 31.5095C25.9442 30.6907 25.5709 29.93 25.0023 29.3266C24.8287 29.1331 24.6741 28.9234 24.5407 28.7003C24.2591 28.151 24.1574 27.527 24.2502 26.9168C24.2691 26.7469 24.2974 26.5782 24.3349 26.4115C24.4787 25.7656 24.7193 25.1453 24.9206 24.516C24.9631 24.3882 25.0407 24.2749 25.1445 24.1891C25.2483 24.1032 25.3742 24.0482 25.5077 24.0304C25.7243 23.9942 25.9467 24.0198 26.1493 24.1045C26.1941 24.1228 26.2372 24.1451 26.278 24.1711C26.6366 24.3874 26.8227 24.8291 26.9726 25.2331C27.6581 27.0726 28.3431 28.9121 29.0276 30.7516C29.1607 31.1086 29.2939 31.4666 29.4271 31.8257C29.6238 32.3521 29.819 32.8785 29.9855 33.4156C30.0021 33.4685 30.0173 33.5199 30.0324 33.5729Z" fill="#D0CDE1"/>
<path d="M16.3558 9.36133C15.5389 9.6371 14.7989 10.2821 14.6317 11.1276C14.5541 11.5195 14.6017 11.9269 14.5364 12.3211C14.3851 13.2352 13.6673 13.9333 13.0052 14.5818C12.3432 15.2302 11.6595 15.9837 11.6112 16.909C11.5582 17.9223 12.2933 18.8715 12.1661 19.8781C12.0183 21.0476 10.7827 21.8054 10.4773 22.9439C10.2733 23.7041 10.5232 24.5231 10.9344 25.1943C11.718 26.4735 13.0574 27.3419 14.4837 27.8074C15.9101 28.2729 17.4291 28.3709 18.9295 28.3866C20.7563 28.4057 22.7398 28.249 24.1124 27.0437C24.8965 26.349 25.3889 25.3838 25.4909 24.3414C25.6213 22.9453 25.0384 21.5027 25.4404 20.1593C25.6935 19.3138 26.3281 18.5417 26.2334 17.6643C26.1408 16.8065 25.3913 16.1984 24.8771 15.5053C24.397 14.8583 24.1057 14.0941 23.8202 13.3407L22.8433 10.763C22.6512 10.2563 22.4404 9.72337 22.0124 9.39078C21.2112 8.76816 19.9229 8.89049 18.9861 9.01891C18.117 9.13804 17.1916 9.07917 16.3558 9.36133Z" fill="#2F2E41"/>
<path d="M17.1112 17.8563C17.1112 17.8563 17.2069 20.7239 16.92 21.0106C16.6332 21.2974 18.0674 23.2091 18.0674 23.2091L20.6491 23.1135L21.9877 22.0621L20.8403 20.5327C20.8403 20.5327 20.3622 18.0475 20.7447 17.474C21.1272 16.9005 17.1112 17.8563 17.1112 17.8563Z" fill="#A0616A"/>
<path opacity="0.1" d="M17.1112 17.8563C17.1112 17.8563 17.2069 20.7239 16.92 21.0106C16.6332 21.2974 18.0674 23.2091 18.0674 23.2091L20.6491 23.1135L21.9877 22.0621L20.8403 20.5327C20.8403 20.5327 20.3622 18.0475 20.7447 17.474C21.1272 16.9005 17.1112 17.8563 17.1112 17.8563Z" fill="black"/>
<path d="M18.6891 18.9556C20.5901 18.9556 22.1313 17.4149 22.1313 15.5145C22.1313 13.6141 20.5901 12.0734 18.6891 12.0734C16.788 12.0734 15.2468 13.6141 15.2468 15.5145C15.2468 17.4149 16.788 18.9556 18.6891 18.9556Z" fill="#A0616A"/>
<path d="M20.4534 33.5729H23.2439C23.3483 33.3838 23.4466 33.1871 23.5601 33.0086V33.0071C23.6842 32.7913 23.8586 32.6086 24.0686 32.4746C24.2021 32.4135 24.3284 32.3379 24.4454 32.2492C24.5573 32.1279 24.6365 31.98 24.6754 31.8196C24.8676 31.2194 24.9736 30.595 24.9902 29.965C24.9947 29.7532 24.9902 29.5384 25.0023 29.3266C25.0082 29.1611 25.0295 28.9965 25.0658 28.8349C25.1616 28.5064 25.3005 28.1921 25.479 27.9001C25.8573 27.2118 26.2366 26.5235 26.6169 25.8351C26.6855 25.6412 26.7118 25.4349 26.6941 25.23C26.6859 24.9536 26.601 24.685 26.449 24.454C26.396 24.3587 26.3385 24.2634 26.2779 24.1711C26.0445 23.7988 25.7727 23.452 25.4668 23.1364C24.818 22.4561 24.0304 21.9232 23.1576 21.5737C23.0481 21.5369 22.9438 21.486 22.8474 21.4224C22.7335 21.3263 22.6373 21.2111 22.5629 21.0821C22.2602 20.6267 21.891 20.1139 21.3447 20.1426C21.2558 20.098 21.1589 20.0716 21.0596 20.0648C20.9604 20.0581 20.8608 20.0712 20.7666 20.1033C20.7379 20.1108 20.7096 20.1199 20.6819 20.1305C20.4731 20.223 20.2704 20.3286 20.0751 20.4467C19.5725 20.7075 19.0029 20.8108 18.4407 20.7432C18.3748 20.7386 18.3102 20.7222 18.2501 20.6948C18.1862 20.6543 18.1273 20.6066 18.0745 20.5526C17.9364 20.4396 17.7708 20.3651 17.5945 20.337C17.4183 20.3088 17.2377 20.3279 17.0712 20.3923C16.9149 20.4479 16.7768 20.5452 16.6717 20.6736C16.5718 20.7992 16.5022 20.9505 16.3918 21.0685C16.1058 21.374 15.6336 21.3861 15.2159 21.3846C14.3485 21.3604 13.4813 21.4401 12.6328 21.6221C11.8876 21.7874 11.1912 22.1241 10.599 22.6054L10.5974 22.6069C10.5157 22.6765 10.4401 22.7476 10.3644 22.8233C10.1923 22.9853 10.0553 23.181 9.96187 23.3981C9.84686 23.6946 9.862 24.0289 9.75758 24.33C9.64257 24.6673 9.38683 24.9426 9.28393 25.2815C9.20524 25.5387 9.21583 25.823 9.08569 26.056C9.09175 26.0606 9.09628 26.0651 9.10234 26.0696C9.65316 26.5537 10.1238 27.1891 10.6761 27.6686C10.9967 27.9128 11.2679 28.2157 11.4751 28.5611C11.515 28.6388 11.5479 28.7198 11.5735 28.8032C11.6356 29.0924 11.6631 29.3879 11.6552 29.6836C11.7248 31.098 12.4921 32.3809 13.3501 33.5063C13.3667 33.529 13.3834 33.5517 13.4015 33.5729L20.4534 33.5729Z" fill="#D0CDE1"/>
<path d="M11.4752 28.5611C11.345 29.4642 11.2139 30.3668 11.0817 31.269C11.0216 31.7521 10.9317 32.231 10.8124 32.7031C10.7337 32.995 10.6323 33.2809 10.5612 33.5729H6.62061C6.62261 33.4094 6.63525 33.2461 6.65844 33.0843C6.7599 32.5027 6.92483 31.9341 7.15025 31.3885C7.60878 30.151 8.06679 28.9126 8.5243 27.6731C8.71951 27.1452 8.88748 26.593 9.10237 26.0696C9.1402 25.9728 9.18105 25.876 9.22495 25.7822C9.45344 25.2799 10.0875 25.4857 10.5566 25.5613C10.6854 25.5773 10.811 25.613 10.9289 25.6672C11.0715 25.7457 11.1918 25.8592 11.2785 25.997C11.7234 26.6551 11.6265 27.5249 11.5115 28.3115C11.4994 28.3947 11.4873 28.4779 11.4752 28.5611Z" fill="#D0CDE1"/>
<path d="M23.5601 33.0086C23.5662 33.0298 23.6312 33.2552 23.7387 33.5729H20.4534C22.0816 33.293 23.5601 33.0071 23.5601 33.0071V33.0086Z" fill="#2F2E41"/>
<path d="M18.9759 15.5145C21.0354 15.5145 22.705 14.6158 22.705 13.5072C22.705 12.3986 21.0354 11.4999 18.9759 11.4999C16.9164 11.4999 15.2468 12.3986 15.2468 13.5072C15.2468 14.6158 16.9164 15.5145 18.9759 15.5145Z" fill="#2F2E41"/>
<path d="M140.024 21.8683H54.6758V79.6556H140.024V21.8683Z" fill="#3F3D56"/>
<path opacity="0.1" d="M127.615 75.7224C133.131 75.7224 137.603 75.2483 137.603 74.6635C137.603 74.0787 133.131 73.6046 127.615 73.6046C122.099 73.6046 117.628 74.0787 117.628 74.6635C117.628 75.2483 122.099 75.7224 127.615 75.7224Z" fill="black"/>
<path d="M85.3951 42.0593V39.7987C85.3951 32.8202 79.7379 27.1629 72.7593 27.1629C65.7808 27.1629 60.1235 32.8202 60.1235 39.7987V42.0593C60.1235 49.0379 65.7808 54.6951 72.7593 54.6951C79.7379 54.6951 85.3951 49.0379 85.3951 42.0593Z" fill="#F2F2F2"/>
<path d="M68.2614 39.8039C68.3435 39.8288 68.4317 39.8245 68.511 39.7918C68.5902 39.759 68.6557 39.6998 68.6962 39.6243C69.0458 39.0737 68.4022 38.3639 68.5416 37.7269C68.6532 37.2165 69.2333 36.9136 69.3519 36.4049C69.4672 35.9105 69.1121 35.3533 69.3521 34.906C69.5401 34.5556 70.0099 34.4634 70.4029 34.5248C70.7959 34.5861 71.169 34.7589 71.566 34.7831C72.0951 34.8153 72.5995 34.5825 73.1169 34.4671C73.6342 34.3518 74.2653 34.3969 74.5697 34.8308C74.9605 35.3878 74.564 36.1635 74.7001 36.8302C74.8082 37.3596 75.2515 37.7979 75.261 38.3381C75.2644 38.5301 74.7595 38.3754 74.7863 38.5656C74.8132 38.7557 74.5745 38.5883 74.7653 38.5657C74.8432 38.5467 74.913 38.5033 74.9646 38.4419C75.0162 38.3806 75.0469 38.3044 75.0524 38.2244C75.075 38.066 75.3728 38.0132 75.3693 37.8533C75.3613 37.4784 76.0393 37.7311 76.1509 37.3732C76.4077 36.5387 76.355 35.6397 76.0025 34.8409C75.8209 34.5146 75.6758 34.1692 75.57 33.811C75.4704 33.314 75.6272 32.7804 75.4629 32.3008C75.2415 31.6545 74.509 31.325 73.8289 31.2581C73.1488 31.1912 72.4576 31.311 71.7814 31.2123C71.1757 31.1239 70.5892 30.8614 69.9782 30.8995C69.245 30.9451 68.6071 31.4173 68.0988 31.9475C67.5906 32.4778 67.1595 33.0876 66.5823 33.5418C66.4056 33.6634 66.2426 33.8037 66.0961 33.9603C65.8021 34.3184 65.7723 34.8286 65.8541 35.2846C65.9358 35.7406 66.1138 36.1756 66.1889 36.6327C66.2595 37.0623 66.2377 37.5012 66.2682 37.9355C66.2753 38.3736 66.4079 38.8004 66.6504 39.1653C66.7552 39.3075 66.891 39.4239 67.0476 39.5056C67.2041 39.5874 67.3773 39.6324 67.5538 39.6372C67.6762 39.64 67.7795 39.5301 67.903 39.5587C68.0573 39.5946 68.1244 39.7411 68.2614 39.8039Z" fill="#2F2E41"/>
<path d="M62.7036 54.8464C62.8141 53.3321 62.8973 52.2006 62.8973 52.2006L63.6116 50.3187L65.9042 54.8464L62.7036 54.8464Z" fill="#575A89"/>
<path opacity="0.1" d="M62.7036 54.8464C62.8141 53.3321 62.8973 52.2006 62.8973 52.2006L63.6116 50.3187L65.9042 54.8464L62.7036 54.8464Z" fill="black"/>
<path d="M68.0166 39.9579C68.0166 39.9579 70.1543 45.3976 68.9235 46.4337C67.6927 47.4698 75.7902 44.6852 75.7902 44.6852L75.5959 43.9729C75.5959 43.9729 72.9399 42.9368 74.2355 39.9579C75.5311 36.979 68.0166 39.9579 68.0166 39.9579Z" fill="#A0616A"/>
<path opacity="0.1" d="M68.0166 39.9579C68.0166 39.9579 70.1543 45.3976 68.9235 46.4337C67.6927 47.4698 75.7902 44.6852 75.7902 44.6852L75.5959 43.9729C75.5959 43.9729 72.9399 42.9368 74.2355 39.9579C75.5311 36.979 68.0166 39.9579 68.0166 39.9579Z" fill="black"/>
<path d="M71.0615 42.1597C73.5659 42.1597 75.5961 40.1301 75.5961 37.6266C75.5961 35.1231 73.5659 33.0935 71.0615 33.0935C68.5571 33.0935 66.5269 35.1231 66.5269 37.6266C66.5269 40.1301 68.5571 42.1597 71.0615 42.1597Z" fill="#A0616A"/>
<path d="M82.0736 47.4051C82.0736 47.4051 82.0554 47.7652 82.0236 48.3945C81.9586 49.6758 81.842 52.0765 81.7255 54.8464H64.1474C63.6881 54.2314 63.312 53.5585 63.0291 52.845C62.9525 52.6382 62.9081 52.4209 62.8974 52.2006C62.8006 50.4836 64.3396 48.0874 65.4261 47.859C66.6564 47.5988 68.9883 45.139 68.9883 45.139C68.9958 45.2327 69.0269 45.3229 69.0788 45.4012C69.1307 45.4795 69.2016 45.5434 69.2849 45.5868V45.5883C69.473 45.6855 69.6833 45.7314 69.8948 45.7214C70.6544 45.7214 73.9957 44.1799 75.0686 43.6762C75.279 43.5779 75.4016 43.5189 75.4016 43.5189C76.6389 44.0527 77.9172 44.4863 79.2241 44.8153C79.8762 44.9779 80.4778 45.2996 80.975 45.7515C81.4723 46.2035 81.8498 46.7716 82.0736 47.4051Z" fill="#575A89"/>
<path d="M67.4838 39.3506C67.5659 39.3755 67.6541 39.3712 67.7334 39.3385C67.8127 39.3057 67.8781 39.2465 67.9187 39.171C68.2682 38.6204 67.6247 37.9105 67.764 37.2735C67.8756 36.7632 68.4557 36.4603 68.5743 35.9516C68.6896 35.4572 68.3345 34.9 68.5745 34.4527C68.7625 34.1023 69.2323 34.0101 69.6253 34.0714C70.0183 34.1328 70.3914 34.3056 70.7885 34.3298C71.3176 34.362 71.8219 34.1292 72.3393 34.0138C72.8566 33.8984 73.4877 33.9436 73.7921 34.3775C74.1829 34.9345 73.7864 35.7102 73.9225 36.3769C74.0306 36.9063 75.2617 37.2778 75.3733 36.9199C75.6301 36.0854 75.5774 35.1864 75.2249 34.3876C75.0433 34.0612 74.8982 33.7159 74.7924 33.3577C74.6928 32.8607 74.8496 32.3271 74.6853 31.8475C74.4639 31.2012 73.7314 30.8717 73.0513 30.8048C72.3712 30.7379 71.6801 30.8577 71.0038 30.759C70.3981 30.6706 69.8116 30.4081 69.2006 30.4462C68.4675 30.4918 67.8295 30.964 67.3213 31.4942C66.813 32.0244 66.3819 32.6343 65.8047 33.0885C65.628 33.2101 65.465 33.3504 65.3185 33.507C65.0245 33.8651 64.9947 34.3753 65.0765 34.8313C65.1582 35.2873 65.3362 35.7223 65.4113 36.1794C65.4819 36.609 65.4602 37.0479 65.4906 37.4822C65.4977 37.9203 65.6303 38.3471 65.8728 38.712C65.9776 38.8542 66.1134 38.9706 66.27 39.0523C66.4265 39.1341 66.5997 39.1791 66.7763 39.1838C66.8986 39.1867 67.0019 39.0768 67.1254 39.1054C67.2797 39.1412 67.3469 39.2878 67.4838 39.3506Z" fill="#2F2E41"/>
<path opacity="0.1" d="M84.3208 54.8464H79.1908C78.8004 51.9843 78.478 48.992 78.478 48.992L79.5146 48.5382L81.6211 47.4052C81.6211 47.4052 81.7755 47.7712 82.0236 48.3945C82.5533 49.7272 83.5142 52.2354 84.3208 54.8464Z" fill="black"/>
<path d="M84.7732 54.8464H78.9835C78.1255 51.715 77.2795 48.3113 77.2795 48.3113L79.4829 46.6926L82.0736 47.4051C82.0736 47.4051 83.5899 51.0131 84.7732 54.8464Z" fill="#575A89"/>
<path d="M125.346 27.1629H100.982V28.827H125.346V27.1629Z" fill="#FC5185"/>
<path d="M69.0519 58.9308H60.4263V60.5949H69.0519V58.9308Z" fill="#FC5185"/>
<path d="M85.0926 61.9563H60.4263V63.6204H85.0926V61.9563Z" fill="#FC5185"/>
<path d="M130.339 33.214H95.2314V34.878H130.339V33.214Z" fill="#F2F2F2"/>
<path d="M130.339 37.9035H95.2314V39.5675H130.339V37.9035Z" fill="#F2F2F2"/>
<path d="M130.339 42.593H95.2314V44.2571H130.339V42.593Z" fill="#F2F2F2"/>
<path d="M130.339 47.2826H95.2314V48.9466H130.339V47.2826Z" fill="#F2F2F2"/>
<path d="M130.339 51.9721H95.2314V53.6362H130.339V51.9721Z" fill="#F2F2F2"/>
<path d="M130.339 56.6617H95.2314V58.3257H130.339V56.6617Z" fill="#F2F2F2"/>
<path d="M130.339 61.3512H95.2314V63.0153H130.339V61.3512Z" fill="#F2F2F2"/>
<path d="M137.106 61.5761L127.509 71.1699L123.476 67.1376C123.348 67.0096 123.196 66.908 123.028 66.8388C122.861 66.7695 122.682 66.7338 122.501 66.7338C122.319 66.7338 122.14 66.7695 121.973 66.8387C121.806 66.908 121.654 67.0096 121.526 67.1376L121.381 66.9209C120.842 67.4592 120.987 68.5486 121.526 69.0869L126.759 74.3188C126.956 74.516 127.224 74.6268 127.503 74.6269C127.782 74.6269 128.049 74.5163 128.247 74.3192L139.055 63.5255C139.594 62.9874 139.79 62.0006 139.251 61.4623C138.713 60.9241 137.645 61.0379 137.106 61.5761Z" fill="#57B894"/>
<path opacity="0.1" d="M137.106 61.5761L127.509 71.1699L123.476 67.1376C123.348 67.0096 123.196 66.908 123.028 66.8388C122.861 66.7695 122.682 66.7338 122.501 66.7338C122.319 66.7338 122.14 66.7695 121.973 66.8387C121.806 66.908 121.654 67.0096 121.526 67.1376L121.381 66.9209C120.842 67.4592 120.987 68.5486 121.526 69.0869L126.759 74.3188C126.956 74.516 127.224 74.6268 127.503 74.6269C127.782 74.6269 128.049 74.5163 128.247 74.3192L139.055 63.5255C139.594 62.9874 139.79 62.0006 139.251 61.4623C138.713 60.9241 137.645 61.0379 137.106 61.5761Z" fill="black"/>
<path d="M137.106 61.1507L127.509 70.7446L123.475 66.7122C123.347 66.5842 123.195 66.4827 123.028 66.4134C122.861 66.3441 122.682 66.3085 122.5 66.3085C122.319 66.3085 122.14 66.3441 121.973 66.4134C121.805 66.4827 121.653 66.5842 121.525 66.7122C121.397 66.8402 121.296 66.9922 121.227 67.1594C121.157 67.3266 121.122 67.5059 121.122 67.6869C121.122 67.8679 121.157 68.0472 121.227 68.2144C121.296 68.3816 121.397 68.5336 121.525 68.6616L126.759 73.8935C126.956 74.0906 127.224 74.2014 127.503 74.2015C127.782 74.2016 128.049 74.0909 128.247 73.8939L139.055 63.1001C139.183 62.9722 139.285 62.8203 139.354 62.653C139.424 62.4858 139.46 62.3066 139.46 62.1255C139.46 61.9445 139.424 61.7652 139.355 61.598C139.285 61.4307 139.184 61.2787 139.056 61.1507C138.797 60.8923 138.447 60.7471 138.081 60.7471C137.715 60.7471 137.365 60.8923 137.106 61.1507Z" fill="#57B894"/>
<path opacity="0.1" d="M207.713 116.719C207.713 127.536 192.629 124.19 174.161 124.19C155.693 124.19 140.834 127.536 140.834 116.719C140.834 105.901 155.915 103.548 174.383 103.548C192.851 103.548 207.713 105.901 207.713 116.719Z" fill="black"/>
<path d="M207.713 114.698C207.713 125.515 192.629 122.169 174.161 122.169C155.693 122.169 140.834 125.515 140.834 114.698C140.834 103.88 155.915 101.528 174.383 101.528C192.851 101.528 207.713 103.88 207.713 114.698Z" fill="#3F3D56"/>
<path d="M144.66 80.8091L143.977 81.6024C143.977 81.6024 135.666 82.3824 136.004 83.731C136.341 85.0795 146.009 81.9329 146.009 81.9329L144.66 80.8091Z" fill="#FFC1C7"/>
<path d="M159.724 80.1348C159.724 80.1348 150.843 83.2815 146.009 81.9329L148.257 86.4282C148.257 86.4282 159.724 86.091 161.748 84.0681C163.771 82.0453 159.724 80.1348 159.724 80.1348Z" fill="#FC5185"/>
<path opacity="0.1" d="M159.724 80.1348C159.724 80.1348 150.843 83.2815 146.009 81.9329L148.257 86.4282C148.257 86.4282 159.724 86.091 161.748 84.0681C163.771 82.0453 159.724 80.1348 159.724 80.1348Z" fill="black"/>
<path d="M153.71 56.0288C157.001 56.0288 159.668 53.3621 159.668 50.0726C159.668 46.783 157.001 44.1163 153.71 44.1163C150.419 44.1163 147.752 46.783 147.752 50.0726C147.752 53.3621 150.419 56.0288 153.71 56.0288Z" fill="#FFC1C7"/>
<path d="M158.79 55.6644C158.996 56.0558 159.255 56.416 159.562 56.734C160.378 57.6217 161.352 58.3501 162.434 58.8825C159.053 59.5695 155.637 60.0773 152.201 60.4036C152.564 59.1267 152.087 57.761 151.445 56.5989C150.803 55.4368 149.985 54.3536 149.584 53.0884L153.611 53.1966C154.342 53.2163 155.075 53.2382 155.805 53.2024C156.351 53.1757 157.261 52.8487 157.771 52.9691C158.848 53.2237 158.32 54.7091 158.79 55.6644Z" fill="#FFC1C7"/>
<path d="M172.315 83.6186L175.688 87.6644C175.688 87.6644 181.309 100.813 169.055 102.162C156.802 103.51 147.695 101.15 147.695 101.15C147.695 101.15 142.749 98.7902 142.637 100.588C142.524 102.386 142.074 107.444 139.376 112.388L137.016 117.783C137.016 117.783 135.779 119.019 136.116 120.705C136.453 122.39 128.584 122.952 128.697 120.705C128.697 120.705 129.821 118.794 129.821 117.67C129.821 116.546 131.619 113.849 131.619 113.849L134.88 97.6664C134.88 97.6664 134.655 89.3501 142.299 90.9234C149.944 92.4968 160.849 90.5863 160.849 90.5863L163.322 81.9329L172.315 83.6186Z" fill="#2F2E41"/>
<path opacity="0.1" d="M172.315 83.6186L175.688 87.6644C175.688 87.6644 181.309 100.813 169.055 102.162C156.802 103.51 147.695 101.15 147.695 101.15C147.695 101.15 142.749 98.7902 142.637 100.588C142.524 102.386 142.074 107.444 139.376 112.388L137.016 117.783C137.016 117.783 135.779 119.019 136.116 120.705C136.453 122.39 128.584 122.952 128.697 120.705C128.697 120.705 129.821 118.794 129.821 117.67C129.821 116.546 131.619 113.849 131.619 113.849L134.88 97.6664C134.88 97.6664 134.655 89.3501 142.299 90.9234C149.944 92.4968 160.849 90.5863 160.849 90.5863L163.322 81.9329L172.315 83.6186Z" fill="black"/>
<path d="M159.668 83.3226C159.668 83.3226 169.955 79.4605 175.688 87.6644C175.688 87.6644 177.15 100.364 171.304 100.925C165.458 101.487 157.813 101.375 156.015 99.4645C154.216 97.554 142.861 92.1596 142.861 92.1596C142.861 92.1596 137.209 89.2777 136.101 93.0225C134.992 96.7673 134.88 97.6663 134.88 97.6663C134.88 97.6663 129.034 101.937 126.673 102.724C126.673 102.724 125.099 104.971 124.2 104.971C123.3 104.971 117.792 106.207 118.354 102.049L127.46 93.733L136.566 84.8548C136.566 84.8548 139.152 81.0338 145.784 83.0567C150.186 84.3663 154.651 85.454 159.162 86.3158L159.668 83.3226Z" fill="#2F2E41"/>
<path d="M135.779 120.48C135.779 120.48 137.915 125.874 136.116 126.549C134.317 127.223 130.495 126.773 130.495 126.773C130.495 126.773 125.998 126.211 124.874 126.324C123.75 126.436 119.141 125.537 119.815 123.739C120.49 121.941 123.975 122.39 123.975 122.39L127.122 120.929C127.122 120.929 127.46 119.806 128.247 120.255C129.034 120.705 131.282 122.39 135.779 120.48Z" fill="#CBCEDA"/>
<path d="M124.087 104.522C124.087 104.522 126.448 109.804 122.626 109.354C118.804 108.905 115.881 108.118 114.756 108.006C113.675 107.897 110.617 106.853 111.086 104.774C111.112 104.639 111.122 104.502 111.117 104.365C111.117 104.086 111.496 103.538 114.532 103.623C114.532 103.623 116.78 103.623 117.679 102.049C117.679 102.049 121.052 106.32 124.087 104.522Z" fill="#CBCEDA"/>
<path d="M149.606 59.5689C149.606 59.5689 157.701 54.5117 164.446 59.5689C171.191 64.6261 175.688 87.6644 175.688 87.6644L160.061 84.1805C160.061 84.1805 159.387 81.4834 158.488 81.0338C157.588 80.5843 157.476 78.6738 157.476 78.6738C157.476 78.6738 152.642 77.2128 152.979 71.5937C153.316 65.9746 149.606 59.5689 149.606 59.5689Z" fill="#FC5185"/>
<path d="M153.766 59.7936H149.606C149.606 59.7936 147.133 62.6032 146.796 69.6832L145.447 75.3023C145.447 75.3023 142.636 82.0452 144.323 83.1691C146.009 84.2929 149.269 84.1805 149.944 81.9329C150.618 79.6852 155.228 66.6489 155.228 66.6489L153.766 59.7936Z" fill="#FC5185"/>
<path d="M152.574 42.321C153.605 41.8983 154.734 41.7699 155.833 41.9501C156.933 42.1304 157.962 42.6123 158.804 43.3421C160.963 45.2682 161.399 48.4104 161.944 51.2512C162.49 54.0921 163.588 57.2557 166.267 58.3509C165.059 58.5121 163.834 58.4765 162.638 58.2454L166.686 61.8713L159.867 59.6497C157.727 58.9524 155.48 58.2464 153.264 58.6402C149.593 59.2925 147.037 62.7424 143.512 63.9543L143.903 62.043L141.538 62.0249C142.105 61.6057 142.568 61.0628 142.893 60.4375C142.782 60.3022 142.644 60.1905 142.489 60.1092C142.333 60.0279 142.163 59.9786 141.988 59.9642C141.002 53.8156 144.655 47.7376 149.414 43.7206C150.351 42.9304 151.387 42.1715 152.596 41.9739C153.805 41.7762 155.217 42.3167 155.637 43.4672" fill="#FFEA9E"/>
<path d="M49.4199 98.6714C49.4199 111.607 57.5378 122.074 67.5699 122.074L49.4199 98.6714Z" fill="#3F3D56"/>
<path d="M67.5698 122.074C67.5698 108.993 76.6289 98.4085 87.8242 98.4085L67.5698 122.074Z" fill="#FC5185"/>
<path d="M55.9961 99.8441C55.9961 112.132 61.1727 122.074 67.57 122.074L55.9961 99.8441Z" fill="#FC5185"/>
<path d="M67.5698 122.074C67.5698 105.36 78.0407 91.8346 90.9807 91.8346L67.5698 122.074Z" fill="#3F3D56"/>
<path d="M63.7517 122.239C63.7517 122.239 66.3257 122.16 67.1014 121.608C67.8771 121.056 71.0608 120.396 71.2533 121.282C71.4457 122.168 75.1215 125.687 72.2155 125.71C69.3095 125.733 65.4632 125.258 64.689 124.786C63.9147 124.315 63.7517 122.239 63.7517 122.239Z" fill="#A8A8A8"/>
<path opacity="0.2" d="M72.2673 125.402C69.3613 125.425 65.5151 124.949 64.7408 124.478C64.1512 124.119 63.9163 122.83 63.8376 122.236C63.7832 122.238 63.7517 122.239 63.7517 122.239C63.7517 122.239 63.9147 124.315 64.689 124.786C65.4632 125.258 69.3095 125.734 72.2155 125.71C73.0543 125.703 73.3441 125.405 73.3282 124.963C73.2116 125.23 72.8917 125.397 72.2673 125.402Z" fill="black"/>
</g>
</svg>
